<svg version="1.1" xmlns="http://www.w3.org/2000/svg" viewBox="0 0 1486.7892448523912 122.8340271869547" width="2973.5784897047824" height="245.6680543739094">
  <!-- svg-source:excalidraw -->
  
  <defs>
    <style class="style-fonts">
      @font-face {
        font-family: "Virgil";
        src: url("https://excalidraw.com/Virgil.woff2");
      }
      @font-face {
        font-family: "Cascadia";
        src: url("https://excalidraw.com/Cascadia.woff2");
      }
      @font-face {
        font-family: "Assistant";
        src: url("https://excalidraw.com/Assistant-Regular.woff2");
      }
    </style>
    
  </defs>
  <rect x="0" y="0" width="1486.7892448523912" height="122.8340271869547" fill="#ffffff"></rect><g transform="translate(1264.7003624061022 10) rotate(0 106.04444122314453 20.699999999999818)"><text x="0" y="33.120703125" font-family="Helvetica, Segoe UI Emoji" font-size="36px" fill="#6741d9" text-anchor="start" style="white-space: pre;" direction="ltr" dominant-baseline="alphabetic">manage-map</text></g><g stroke-linecap="round" transform="translate(10 10.578190048776378) rotate(0 517.4497965526787 51.12791856908916)"><path d="M0 0 L1034.9 0 L1034.9 102.26 L0 102.26" stroke="none" stroke-width="0" fill="#b2f2bb"></path><path d="M0 0 C388.88 0, 777.77 0, 1034.9 0 M0 0 C326.32 0, 652.65 0, 1034.9 0 M1034.9 0 C1034.9 40.33, 1034.9 80.66, 1034.9 102.26 M1034.9 0 C1034.9 38.37, 1034.9 76.74, 1034.9 102.26 M1034.9 102.26 C739.9 102.26, 444.9 102.26, 0 102.26 M1034.9 102.26 C622.01 102.26, 209.11 102.26, 0 102.26 M0 102.26 C0 79.09, 0 55.92, 0 0 M0 102.26 C0 70.5, 0 38.75, 0 0" stroke="#6741d9" stroke-width="4" fill="none"></path></g><g stroke-linecap="round"><g transform="translate(1261.7524891052867 50.20978285860656) rotate(0 -107.9264479999647 1.1947300956685467)"><path d="M0 0 C-66.29 0.73, -132.58 1.47, -215.85 2.39 M0 0 C-68.09 0.75, -136.17 1.51, -215.85 2.39" stroke="#6741d9" stroke-width="4" fill="none"></path></g><g transform="translate(1261.7524891052867 50.20978285860656) rotate(0 -107.9264479999647 1.1947300956685467)"><path d="M-192.46 -6.42 C-199.64 -3.71, -206.83 -1.01, -215.85 2.39 M-192.46 -6.42 C-199.84 -3.64, -207.22 -0.86, -215.85 2.39" stroke="#6741d9" stroke-width="4" fill="none"></path></g><g transform="translate(1261.7524891052867 50.20978285860656) rotate(0 -107.9264479999647 1.1947300956685467)"><path d="M-192.27 10.68 C-199.51 8.13, -206.75 5.59, -215.85 2.39 M-192.27 10.68 C-199.71 8.06, -207.15 5.45, -215.85 2.39" stroke="#6741d9" stroke-width="4" fill="none"></path></g></g><mask></mask><g transform="translate(41.763031674796366 43.159159623514824) rotate(0 31.28692670993007 17.498511775761017)"><text x="0" y="27.99821322001445" font-family="Helvetica, Segoe UI Emoji" font-size="30.43219439262796px" fill="#6741d9" text-anchor="start" style="white-space: pre;" direction="ltr" dominant-baseline="alphabetic">size:</text></g><g transform="translate(226.07877657373228 43.159159623514824) rotate(0 27.905571777415844 17.498511775761017)"><text x="0" y="27.99821322001445" font-family="Helvetica, Segoe UI Emoji" font-size="30.43219439262796px" fill="#6741d9" text-anchor="start" style="white-space: pre;" direction="ltr" dominant-baseline="alphabetic">title:</text></g><g transform="translate(432.74990590923426 43.159159623514824) rotate(0 47.367146583008434 17.498511775761017)"><text x="0" y="27.99821322001445" font-family="Helvetica, Segoe UI Emoji" font-size="30.432194392627956px" fill="#6741d9" text-anchor="start" style="white-space: pre;" direction="ltr" dominant-baseline="alphabetic">author:</text></g><g stroke-linecap="round" transform="translate(117.74727912670414 39.0474664439289) rotate(0 33.53307665484863 21.610204955346944)"><path d="M0 0 L67.07 0 L67.07 43.22 L0 43.22" stroke="none" stroke-width="0" fill="#fff"></path><path d="M0 0 C21.94 0, 43.87 0, 67.07 0 M0 0 C15.43 0, 30.85 0, 67.07 0 M67.07 0 C67.07 9.97, 67.07 19.93, 67.07 43.22 M67.07 0 C67.07 16.92, 67.07 33.83, 67.07 43.22 M67.07 43.22 C50.35 43.22, 33.62 43.22, 0 43.22 M67.07 43.22 C48.68 43.22, 30.29 43.22, 0 43.22 M0 43.22 C0 26.5, 0 9.78, 0 0 M0 43.22 C0 31.13, 0 19.04, 0 0" stroke="#6741d9" stroke-width="4" fill="none"></path></g><g stroke-linecap="round" transform="translate(302.06302402564006 39.0474664439289) rotate(0 60.35953797872753 21.610204955346944)"><path d="M0 0 L120.72 0 L120.72 43.22 L0 43.22" stroke="none" stroke-width="0" fill="#fff"></path><path d="M0 0 C46.7 0, 93.4 0, 120.72 0 M0 0 C35.8 0, 71.6 0, 120.72 0 M120.72 0 C120.72 8.78, 120.72 17.55, 120.72 43.22 M120.72 0 C120.72 11.95, 120.72 23.9, 120.72 43.22 M120.72 43.22 C78.15 43.22, 35.58 43.22, 0 43.22 M120.72 43.22 C94.04 43.22, 67.35 43.22, 0 43.22 M0 43.22 C0 29.89, 0 16.55, 0 0 M0 43.22 C0 34.45, 0 25.67, 0 0" stroke="#6741d9" stroke-width="4" fill="none"></path></g><g stroke-linecap="round" transform="translate(544.5027684596473 39.0474664439289) rotate(0 124.44497336354937 22.3553844365656)"><path d="M0 0 L248.89 0 L248.89 44.71 L0 44.71" stroke="none" stroke-width="0" fill="#fff"></path><path d="M0 0 C88.16 0, 176.31 0, 248.89 0 M0 0 C92.33 0, 184.67 0, 248.89 0 M248.89 0 C248.89 11.36, 248.89 22.73, 248.89 44.71 M248.89 0 C248.89 15.66, 248.89 31.33, 248.89 44.71 M248.89 44.71 C177.27 44.71, 105.64 44.71, 0 44.71 M248.89 44.71 C169.6 44.71, 90.32 44.71, 0 44.71 M0 44.71 C0 34.05, 0 23.39, 0 0 M0 44.71 C0 28.21, 0 11.71, 0 0" stroke="#6741d9" stroke-width="4" fill="none"></path></g><g stroke-linecap="round" transform="translate(814.2173079672134 22.590608647398767) rotate(0 100.49280546338196 36.595645920191146)"><path d="M18.3 0 C77.41 0, 136.52 0, 182.69 0 C194.89 0, 200.99 6.1, 200.99 18.3 C200.99 29.72, 200.99 41.14, 200.99 54.89 C200.99 67.09, 194.89 73.19, 182.69 73.19 C131.67 73.19, 80.65 73.19, 18.3 73.19 C6.1 73.19, 0 67.09, 0 54.89 C0 44.16, 0 33.42, 0 18.3 C0 6.1, 6.1 0, 18.3 0" stroke="none" stroke-width="0" fill="#ffec99"></path><path d="M18.3 0 C66.46 0, 114.62 0, 182.69 0 M18.3 0 C83.42 0, 148.54 0, 182.69 0 M182.69 0 C194.89 0, 200.99 6.1, 200.99 18.3 M182.69 0 C194.89 0, 200.99 6.1, 200.99 18.3 M200.99 18.3 C200.99 28.35, 200.99 38.4, 200.99 54.89 M200.99 18.3 C200.99 31.79, 200.99 45.29, 200.99 54.89 M200.99 54.89 C200.99 67.09, 194.89 73.19, 182.69 73.19 M200.99 54.89 C200.99 67.09, 194.89 73.19, 182.69 73.19 M182.69 73.19 C129.06 73.19, 75.44 73.19, 18.3 73.19 M182.69 73.19 C125.74 73.19, 68.79 73.19, 18.3 73.19 M18.3 73.19 C6.1 73.19, 0 67.09, 0 54.89 M18.3 73.19 C6.1 73.19, 0 67.09, 0 54.89 M0 54.89 C0 40.57, 0 26.25, 0 18.3 M0 54.89 C0 47.36, 0 39.83, 0 18.3 M0 18.3 C0 6.1, 6.1 0, 18.3 0 M0 18.3 C0 6.1, 6.1 0, 18.3 0" stroke="#6741d9" stroke-width="4" fill="none"></path></g><g transform="translate(845.0228761972958 42.940278043144644) rotate(0 77.14951584656114 13.64046242774566)"><text x="0" y="21.82520321531789" font-family="Helvetica, Segoe UI Emoji" font-size="23.72254335260113px" fill="#6741d9" text-anchor="start" style="white-space: pre;" direction="ltr" dominant-baseline="alphabetic">download map</text></g></svg>